<svg aria-hidden="true" style="position: absolute; width: 0; height: 0; overflow: hidden;" version="1.1" xmlns="http://www.w3.org/2000/svg" xmlns:xlink="http://www.w3.org/1999/xlink">
<defs>
<symbol id="icon-arrow-circle-right" viewBox="0 0 32 32">
<path stroke-linejoin="round" stroke-linecap="round" stroke-miterlimit="4" stroke-width="2.6" d="M4.451 9.333c2.305-3.985 6.614-6.667 11.55-6.667 7.364 0 13.333 5.97 13.333 13.333s-5.97 13.333-13.333 13.333c-4.935 0-9.244-2.681-11.55-6.667"></path>
<path stroke-linejoin="round" stroke-linecap="round" stroke-miterlimit="4" stroke-width="2.6" d="M16 21.333l5.333-5.333-5.333-5.333"></path>
<path stroke-linejoin="round" stroke-linecap="round" stroke-miterlimit="4" stroke-width="2.6" d="M2.667 16h18.667"></path>
</symbol>
<symbol id="icon-calendar-check-black" viewBox="0 0 32 32">
<path fill="none" stroke="#84828a" style="stroke: var(--color1, #84828a)" stroke-linejoin="round" stroke-linecap="round" stroke-miterlimit="4" stroke-width="2.6667" d="M28 13.333h-24M28 16.667v-4.933c0-2.24 0-3.36-0.436-4.216-0.383-0.753-0.995-1.365-1.748-1.748-0.856-0.436-1.976-0.436-4.216-0.436h-11.2c-2.24 0-3.36 0-4.216 0.436-0.753 0.383-1.365 0.995-1.748 1.748-0.436 0.856-0.436 1.976-0.436 4.216v11.2c0 2.24 0 3.36 0.436 4.216 0.383 0.753 0.995 1.365 1.748 1.748 0.856 0.436 1.976 0.436 4.216 0.436h5.6M21.333 2.667v5.333M10.667 2.667v5.333M19.333 25.333l2.667 2.667 6-6"></path>
</symbol>
<symbol id="icon-calendar-check-blue" viewBox="0 0 32 32">
<path fill="none" stroke="#3e85f3" style="stroke: var(--color2, #3e85f3)" stroke-linejoin="round" stroke-linecap="round" stroke-miterlimit="4" stroke-width="2.6667" d="M28 13.333h-24M28 16.667v-4.933c0-2.24 0-3.36-0.436-4.216-0.383-0.753-0.995-1.365-1.748-1.748-0.856-0.436-1.976-0.436-4.216-0.436h-11.2c-2.24 0-3.36 0-4.216 0.436-0.753 0.383-1.365 0.995-1.748 1.748-0.436 0.856-0.436 1.976-0.436 4.216v11.2c0 2.24 0 3.36 0.436 4.216 0.383 0.753 0.995 1.365 1.748 1.748 0.856 0.436 1.976 0.436 4.216 0.436h5.6M21.333 2.667v5.333M10.667 2.667v5.333M19.333 25.333l2.667 2.667 6-6"></path>
</symbol>
<symbol id="icon-icon" viewBox="0 0 32 32">
<path stroke-linejoin="round" stroke-linecap="round" stroke-miterlimit="4" stroke-width="2.6667" d="M16 10.667v10.667M10.667 16h10.667M29.333 16c0 7.364-5.97 13.333-13.333 13.333s-13.333-5.97-13.333-13.333c0-7.364 5.97-13.333 13.333-13.333s13.333 5.97 13.333 13.333z"></path>
</symbol>
<symbol id="icon-moon" viewBox="0 0 32 32">
<path fill="#3e85f3" style="fill: var(--color2, #3e85f3)" d="M27.656 17.393c-0.904 0.24-1.834 0.361-2.769 0.361-2.847 0-5.52-1.107-7.528-3.115-1.319-1.326-2.267-2.975-2.749-4.782s-0.484-3.709-0.002-5.516c0.060-0.226 0.060-0.464-0.001-0.689s-0.18-0.432-0.345-0.597c-0.165-0.165-0.371-0.284-0.597-0.344s-0.464-0.060-0.69 0c-2.262 0.603-4.327 1.79-5.985 3.443-5.197 5.197-5.197 13.657 0 18.857 1.235 1.242 2.705 2.227 4.323 2.898s3.354 1.014 5.106 1.009c1.752 0.005 3.487-0.338 5.105-1.008s3.087-1.655 4.322-2.897c1.654-1.659 2.841-3.724 3.444-5.988 0.060-0.226 0.059-0.463-0.002-0.689s-0.18-0.431-0.345-0.596-0.371-0.284-0.596-0.345c-0.226-0.061-0.463-0.061-0.689-0.001zM23.96 23.128c-0.988 0.993-2.163 1.781-3.458 2.317s-2.682 0.81-4.084 0.807c-1.402 0.003-2.79-0.271-4.085-0.807s-2.471-1.324-3.459-2.318c-4.157-4.159-4.157-10.927 0-15.085 0.803-0.802 1.731-1.47 2.747-1.977-0.149 1.919 0.119 3.847 0.784 5.653s1.712 3.447 3.070 4.811c1.361 1.362 3.002 2.412 4.808 3.077s3.736 0.931 5.656 0.777c-0.51 1.014-1.178 1.941-1.979 2.745z"></path>
</symbol>
<symbol id="icon-pencil" viewBox="0 0 32 32">
<path stroke-linejoin="round" stroke-linecap="round" stroke-miterlimit="4" stroke-width="2.6" d="M3.333 28.667l7.399-2.846c0.473-0.182 0.71-0.273 0.931-0.392 0.197-0.106 0.384-0.227 0.56-0.364 0.198-0.154 0.378-0.333 0.736-0.692l15.040-15.040c1.473-1.473 1.473-3.861 0-5.333s-3.861-1.473-5.333 0l-15.040 15.040c-0.359 0.359-0.538 0.538-0.692 0.736-0.137 0.176-0.259 0.364-0.364 0.561-0.119 0.221-0.21 0.458-0.392 0.931l-2.846 7.399zM3.333 28.667l2.744-7.135c0.196-0.511 0.295-0.766 0.463-0.883 0.147-0.102 0.329-0.141 0.505-0.107 0.201 0.038 0.395 0.232 0.782 0.619l3.012 3.012c0.387 0.387 0.58 0.58 0.619 0.782 0.034 0.176-0.005 0.358-0.107 0.505-0.117 0.168-0.372 0.267-0.883 0.463l-7.135 2.744z"></path>
</symbol>
<symbol id="icon-sun" viewBox="0 0 32 32">
<path fill="#3e85f3" style="fill: var(--color2, #3e85f3)" d="M9.324 16c0 3.681 2.995 6.676 6.676 6.676s6.676-2.995 6.676-6.676c0-3.681-2.995-6.676-6.676-6.676s-6.676 2.995-6.676 6.676zM16 11.991c2.211 0 4.009 1.799 4.009 4.009s-1.799 4.009-4.009 4.009c-2.211 0-4.009-1.799-4.009-4.009s1.799-4.009 4.009-4.009zM14.664 25.333h2.667v4h-2.667v-4zM14.664 2.667h2.667v4h-2.667v-4zM2.664 14.667h4v2.667h-4v-2.667zM25.331 14.667h4v2.667h-4v-2.667zM5.625 24.484l2.827-2.829 1.887 1.885-2.827 2.829-1.887-1.885zM21.653 8.459l2.829-2.829 1.885 1.885-2.829 2.829-1.885-1.885zM8.456 10.345l-2.829-2.829 1.887-1.885 2.827 2.829-1.884 1.885zM26.368 24.485l-1.885 1.885-2.829-2.829 1.885-1.885 2.829 2.829z"></path>
</symbol>
<symbol id="icon-trash" viewBox="0 0 32 32">
<path stroke-linejoin="round" stroke-linecap="round" stroke-miterlimit="4" stroke-width="2.6" d="M12 4h8"></path>
<path stroke-linejoin="round" stroke-linecap="round" stroke-miterlimit="4" stroke-width="2.6" d="M4 8h24"></path>
<path stroke-linejoin="round" stroke-linecap="round" stroke-miterlimit="4" stroke-width="2.6" d="M6.667 8l0.801 12.018c0.149 2.231 0.223 3.347 0.588 4.243 0.662 1.627 2.004 2.883 3.672 3.435 0.919 0.304 2.037 0.304 4.273 0.304v0c2.236 0 3.354 0 4.273-0.304 1.668-0.552 3.009-1.808 3.671-3.435 0.365-0.896 0.439-2.012 0.588-4.243l0.801-12.018"></path>
</symbol>
<symbol id="icon-user-check-black" viewBox="0 0 32 32">
<path fill="none" stroke="#84828a" style="stroke: var(--color1, #84828a)" stroke-linejoin="round" stroke-linecap="round" stroke-miterlimit="4" stroke-width="2.6667" d="M21.333 24l2.667 2.667 5.333-5.333"></path>
<path fill="none" stroke="#84828a" style="stroke: var(--color1, #84828a)" stroke-linejoin="round" stroke-linecap="round" stroke-miterlimit="4" stroke-width="2.6667" d="M16 20.667h-6c-1.861 0-2.791 0-3.548 0.23-1.705 0.517-3.038 1.851-3.555 3.556-0.23 0.757-0.23 1.687-0.23 3.548v0"></path>
<path fill="none" stroke="#84828a" style="stroke: var(--color1, #84828a)" stroke-linejoin="round" stroke-linecap="round" stroke-miterlimit="4" stroke-width="2.6667" d="M13.333 16c3.314 0 6-2.686 6-6s-2.686-6-6-6c-3.314 0-6 2.686-6 6s2.686 6 6 6z"></path>
</symbol>
<symbol id="icon-user-check-blue" viewBox="0 0 32 32">
<path fill="none" stroke="#3e85f3" style="stroke: var(--color2, #3e85f3)" stroke-linejoin="round" stroke-linecap="round" stroke-miterlimit="4" stroke-width="2.6667" d="M21.333 24l2.667 2.667 5.333-5.333"></path>
<path fill="none" stroke="#3e85f3" style="stroke: var(--color2, #3e85f3)" stroke-linejoin="round" stroke-linecap="round" stroke-miterlimit="4" stroke-width="2.6667" d="M16 20.667h-6c-1.861 0-2.791 0-3.548 0.23-1.705 0.517-3.038 1.851-3.555 3.556-0.23 0.757-0.23 1.687-0.23 3.548v0"></path>
<path fill="none" stroke="#3e85f3" style="stroke: var(--color2, #3e85f3)" stroke-linejoin="round" stroke-linecap="round" stroke-miterlimit="4" stroke-width="2.6667" d="M13.333 16c3.314 0 6-2.686 6-6s-2.686-6-6-6c-3.314 0-6 2.686-6 6s2.686 6 6 6z"></path>
</symbol>
</defs>
</svg>
